<?xml version="1.0" standalone="no"?>
<!DOCTYPE svg PUBLIC "-//W3C//DTD SVG 20010904//EN"
 "http://www.w3.org/TR/2001/REC-SVG-20010904/DTD/svg10.dtd">
<svg version="1.0" xmlns="http://www.w3.org/2000/svg"
 width="90.000000pt" height="90.000000pt" viewBox="0 0 90.000000 90.000000"
 preserveAspectRatio="xMidYMid meet">
<metadata>
Created by potrace 1.11, written by Peter Selinger 2001-2013
</metadata>
<g transform="translate(0.000000,90.000000) scale(0.100000,-0.100000)"
fill="#000000" stroke="none">
<path d="M327 869 c-95 -22 -199 -99 -256 -187 -53 -85 -74 -164 -69 -269 4
-79 10 -102 40 -165 44 -93 115 -165 205 -210 66 -32 71 -33 193 -33 115 0
130 2 183 27 66 31 158 114 194 176 121 205 59 477 -138 602 -96 62 -238 86
-352 59z m101 -165 c-3 -96 -5 -102 -45 -170 -75 -127 -79 -199 -17 -312 19
-35 32 -67 29 -70 -11 -12 -101 94 -113 134 -27 90 -12 148 62 242 64 82 76
115 77 229 1 54 4 87 6 73 3 -14 3 -70 1 -126z m-21 24 c-2 -13 -4 -5 -4 17
-1 22 1 32 4 23 2 -10 2 -28 0 -40z m63 16 c0 -8 -4 -14 -10 -14 -5 0 -10 9
-10 21 0 11 5 17 10 14 6 -3 10 -13 10 -21z m-80 -75 c-7 -12 -45 -57 -86
-101 -98 -105 -117 -143 -112 -224 5 -79 39 -133 115 -183 29 -19 51 -37 48
-39 -7 -7 -109 44 -142 72 -62 53 -93 172 -64 249 15 39 69 95 148 153 41 30
79 66 85 79 6 14 13 23 15 21 3 -2 -1 -14 -7 -27z m104 -18 c11 -13 53 -45 91
-71 122 -84 155 -130 155 -218 -1 -91 -61 -175 -155 -218 l-50 -23 -47 22
c-41 19 -50 29 -63 67 -30 84 -30 164 -1 280 14 58 26 119 26 135 0 41 12 84
18 65 3 -8 14 -26 26 -39z m-44 -561 c0 -16 -4 -30 -10 -30 -11 0 -14 43 -3
53 11 12 13 8 13 -23z m-43 -5 c-4 -8 -11 -15 -17 -15 -6 0 -6 7 2 20 14 22
24 19 15 -5z m88 -13 c-8 -8 -25 10 -25 26 0 13 2 13 14 -4 8 -10 13 -21 11
-22z"/>
<path d="M470 636 c0 -8 29 -43 64 -79 82 -82 106 -129 106 -202 0 -61 -17
-111 -56 -163 -44 -57 -15 -50 41 10 64 69 85 134 66 205 -12 46 -70 121 -112
146 -14 9 -45 34 -67 57 -24 22 -42 34 -42 26z"/>
</g>
</svg>
